REM DIRINDEX 1\2,1\3,1\4,1\5,1\6
REM DIRNAME folder01,folder02,folder03,folder04,folder05,folder06
TITLE ""
FILE "Disc3Track47.mp3" MP3
  TRACK 01 AUDIO
    TITLE "2:cjc030_05490"
    INDEX 01 00:00:00
  TRACK 02 AUDIO
    TITLE "0:"
    INDEX 01 00:03:43
  TRACK 03 AUDIO
    TITLE "3:cjc030_05491"
    INDEX 01 00:04:01
  TRACK 04 AUDIO
    TITLE "0:"
    INDEX 01 00:05:07
  TRACK 05 AUDIO
    TITLE "4:cjc030_05492"
    INDEX 01 00:05:14
  TRACK 06 AUDIO
    TITLE "0:"
    INDEX 01 00:06:43
  TRACK 07 AUDIO
    TITLE "5:cjc030_05493"
    INDEX 01 00:06:53
  TRACK 08 AUDIO
    TITLE "0:"
    INDEX 01 00:07:56
  TRACK 09 AUDIO
    TITLE "3:cjc030_05494"
    INDEX 01 00:08:34
  TRACK 10 AUDIO
    TITLE "0:"
    INDEX 01 00:09:34
  TRACK 11 AUDIO
    TITLE "4:cjc030_05495"
    INDEX 01 00:09:42
  TRACK 12 AUDIO
    TITLE "0:"
    INDEX 01 00:12:36
  TRACK 13 AUDIO
    TITLE "5:cjc030_05496"
    INDEX 01 00:12:42
  TRACK 14 AUDIO
    TITLE "0:"
    INDEX 01 00:13:43
  TRACK 15 AUDIO
    TITLE "6:cjc030_05497"
    INDEX 01 00:13:55
  TRACK 16 AUDIO
    TITLE "0:"
    INDEX 01 00:16:59
  TRACK 17 AUDIO
    TITLE "3:cjc030_05498"
    INDEX 01 00:17:33
  TRACK 18 AUDIO
    TITLE "0:"
    INDEX 01 00:18:44
  TRACK 19 AUDIO
    TITLE "4:cjc030_05499"
    INDEX 01 00:18:54
  TRACK 20 AUDIO
    TITLE "0:"
    INDEX 01 00:20:04
  TRACK 21 AUDIO
    TITLE "5:cjc030_05500"
    INDEX 01 00:20:12
  TRACK 22 AUDIO
    TITLE "0:"
    INDEX 01 00:21:27
  TRACK 23 AUDIO
    TITLE "6:cjc030_05501"
    INDEX 01 00:21:37
  TRACK 24 AUDIO
    TITLE "0:"
    INDEX 01 00:26:42
  TRACK 25 AUDIO
    TITLE "3:cjc030_05502"
    INDEX 01 00:27:14
  TRACK 26 AUDIO
    TITLE "0:"
    INDEX 01 00:28:23
  TRACK 27 AUDIO
    TITLE "4:cjc030_05503"
    INDEX 01 00:28:33
  TRACK 28 AUDIO
    TITLE "0:"
    INDEX 01 00:31:35
  TRACK 29 AUDIO
    TITLE "5:cjc030_05504"
    INDEX 01 00:31:43
  TRACK 30 AUDIO
    TITLE "0:"
    INDEX 01 00:32:52
  TRACK 31 AUDIO
    TITLE "6:cjc030_05505"
    INDEX 01 00:32:66
  TRACK 32 AUDIO
    TITLE "0:"
    INDEX 01 00:36:36
  TRACK 33 AUDIO
    TITLE "3:cjc030_05506"
    INDEX 01 00:37:10
  TRACK 34 AUDIO
    TITLE "0:"
    INDEX 01 00:38:30
  TRACK 35 AUDIO
    TITLE "4:cjc030_05507"
    INDEX 01 00:38:39
  TRACK 36 AUDIO
    TITLE "0:"
    INDEX 01 00:40:64
  TRACK 37 AUDIO
    TITLE "5:cjc030_05508"
    INDEX 01 00:40:73
  TRACK 38 AUDIO
    TITLE "0:"
    INDEX 01 00:42:18
  TRACK 39 AUDIO
    TITLE "3:cjc030_05509"
    INDEX 01 00:42:72
  TRACK 40 AUDIO
    TITLE "0:"
    INDEX 01 00:44:16
  TRACK 41 AUDIO
    TITLE "4:cjc030_05510"
    INDEX 01 00:44:24
  TRACK 42 AUDIO
    TITLE "0:"
    INDEX 01 00:46:11
  TRACK 43 AUDIO
    TITLE "5:cjc030_05511"
    INDEX 01 00:46:19
  TRACK 44 AUDIO
    TITLE "0:"
    INDEX 01 00:47:36
  TRACK 45 AUDIO
    TITLE "6:cjc030_05512"
    INDEX 01 00:47:50
  TRACK 46 AUDIO
    TITLE "0:"
    INDEX 01 00:51:15
  TRACK 47 AUDIO
    TITLE "3:cjc030_05513"
    INDEX 01 00:51:63
  TRACK 48 AUDIO
    TITLE "0:"
    INDEX 01 00:53:04
  TRACK 49 AUDIO
    TITLE "4:cjc030_05514"
    INDEX 01 00:53:11
  TRACK 50 AUDIO
    TITLE "0:"
    INDEX 01 00:57:48
  TRACK 51 AUDIO
    TITLE "5:cjc030_05515"
    INDEX 01 00:57:58
  TRACK 52 AUDIO
    TITLE "0:"
    INDEX 01 00:58:71
  TRACK 53 AUDIO
    TITLE "6:cjc030_05516"
    INDEX 01 00:59:10
  TRACK 54 AUDIO
    TITLE "0:"
    INDEX 01 01:05:60
  TRACK 55 AUDIO
    TITLE "3:cjc030_05517"
    INDEX 01 01:06:36
  TRACK 56 AUDIO
    TITLE "0:"
    INDEX 01 01:07:37
  TRACK 57 AUDIO
    TITLE "4:cjc030_05518"
    INDEX 01 01:07:45
  TRACK 58 AUDIO
    TITLE "0:"
    INDEX 01 01:08:42
  TRACK 59 AUDIO
    TITLE "5:cjc030_05519"
    INDEX 01 01:08:50
  TRACK 60 AUDIO
    TITLE "0:"
    INDEX 01 01:09:52
  TRACK 61 AUDIO
    TITLE "6:cjc030_05520"
    INDEX 01 01:09:65
  TRACK 62 AUDIO
    TITLE "0:"
    INDEX 01 01:11:51
  TRACK 63 AUDIO
    TITLE "3:cjc030_05521"
    INDEX 01 01:12:24
  TRACK 64 AUDIO
    TITLE "0:"
    INDEX 01 01:13:38
  TRACK 65 AUDIO
    TITLE "4:cjc030_05522"
    INDEX 01 01:13:45
  TRACK 66 AUDIO
    TITLE "0:"
    INDEX 01 01:15:44
  TRACK 67 AUDIO
    TITLE "5:cjc030_05523"
    INDEX 01 01:15:54
  TRACK 68 AUDIO
    TITLE "0:"
    INDEX 01 01:16:67
  TRACK 69 AUDIO
    TITLE "6:cjc030_05524"
    INDEX 01 01:17:04
  TRACK 70 AUDIO
    TITLE "0:"
    INDEX 01 01:18:70
